<svg width="17" height="16" viewBox="0 0 17 16" fill="none" xmlns="http://www.w3.org/2000/svg">
<path d="M14.703 8.47089C14.8774 8.47089 15.0445 8.39879 15.1678 8.27046C15.2911 8.14213 15.3603 7.96808 15.3603 7.78659C15.3603 7.6051 15.2911 7.43105 15.1678 7.30271C15.0445 7.17438 14.8774 7.10229 14.703 7.10229C10.6409 7.00648 8.7873 5.04938 8.7873 0.943578C8.7873 0.76209 8.71805 0.588036 8.59478 0.459704C8.47151 0.331373 8.30433 0.259277 8.13 0.259277C7.95567 0.259277 7.78848 0.331373 7.66521 0.459704C7.54195 0.588036 7.47269 0.76209 7.47269 0.943578V0.943578C7.47269 5.0836 5.57309 7.0407 1.55696 7.10229C1.38263 7.10229 1.21545 7.17438 1.09218 7.30271C0.96891 7.43105 0.899658 7.6051 0.899658 7.78659C0.899658 7.96808 0.96891 8.14213 1.09218 8.27046C1.21545 8.39879 1.38263 8.47089 1.55696 8.47089V8.47089C5.54022 8.47089 7.41354 10.428 7.47269 14.6296C7.47269 14.8111 7.54195 14.9851 7.66521 15.1135C7.78848 15.2418 7.95567 15.3139 8.13 15.3139C8.30433 15.3139 8.47151 15.2418 8.59478 15.1135C8.71805 14.9851 8.7873 14.8111 8.7873 14.6296C8.99107 10.4075 10.8578 8.47089 14.6636 8.47089H14.703Z" fill="#37CBFC"/>
<path d="M12.087 2.39505H12.9087V3.25043C12.9087 3.38655 12.9606 3.51709 13.0531 3.61333C13.1455 3.70958 13.2709 3.76366 13.4016 3.76366C13.5324 3.76366 13.6578 3.70958 13.7502 3.61333C13.8427 3.51709 13.8946 3.38655 13.8946 3.25043V2.39505H14.7162C14.847 2.39505 14.9724 2.34098 15.0648 2.24473C15.1573 2.14848 15.2092 2.01794 15.2092 1.88183C15.2092 1.74571 15.1573 1.61517 15.0648 1.51892C14.9724 1.42267 14.847 1.3686 14.7162 1.3686H13.8946V0.513226C13.8946 0.37711 13.8427 0.246569 13.7502 0.15032C13.6578 0.0540719 13.5324 0 13.4016 0C13.2709 0 13.1455 0.0540719 13.0531 0.15032C12.9606 0.246569 12.9087 0.37711 12.9087 0.513226V1.3686H12.087C11.9563 1.3686 11.8309 1.42267 11.7384 1.51892C11.646 1.61517 11.5941 1.74571 11.5941 1.88183C11.5941 2.01794 11.646 2.14848 11.7384 2.24473C11.8309 2.34098 11.9563 2.39505 12.087 2.39505Z" fill="#37CBFC"/>
<path d="M16.182 13.6049H15.3603V12.7496C15.3603 12.6134 15.3084 12.4829 15.2159 12.3866C15.1235 12.2904 14.9981 12.2363 14.8674 12.2363C14.7366 12.2363 14.6112 12.2904 14.5188 12.3866C14.4263 12.4829 14.3744 12.6134 14.3744 12.7496V13.6049H13.5527C13.422 13.6049 13.2966 13.659 13.2042 13.7552C13.1117 13.8515 13.0598 13.982 13.0598 14.1182C13.0598 14.2543 13.1117 14.3848 13.2042 14.4811C13.2966 14.5773 13.422 14.6314 13.5527 14.6314H14.3744V15.4868C14.3744 15.6229 14.4263 15.7534 14.5188 15.8497C14.6112 15.9459 14.7366 16 14.8674 16C14.9981 16 15.1235 15.9459 15.2159 15.8497C15.3084 15.7534 15.3603 15.6229 15.3603 15.4868V14.6314H16.182C16.3127 14.6314 16.4381 14.5773 16.5305 14.4811C16.623 14.3848 16.6749 14.2543 16.6749 14.1182C16.6749 13.982 16.623 13.8515 16.5305 13.7552C16.4381 13.659 16.3127 13.6049 16.182 13.6049Z" fill="#37CBFC"/>
</svg>
