<svg width="24" height="24" viewBox="0 0 24 24" fill="current" xmlns="http://www.w3.org/2000/svg">
    <path d="M3 21H11C11.2652 21 11.5196 20.8946 11.7071 20.7071C11.8946 20.5196 12 20.2652 12 20V18.5C12 18.1022 11.842 17.7206 11.5607 17.4393C11.2794 17.158 10.8978 17 10.5 17H3.5C3.10218 17 2.72064 17.158 2.43934 17.4393C2.15804 17.7206 2 18.1022 2 18.5V20C2 20.2652 2.10536 20.5196 2.29289 20.7071C2.48043 20.8946 2.73478 21 3 21Z" fill="current" />
    <path d="M22.9999 17.9999C23.1575 17.8496 23.283 17.6688 23.3687 17.4686C23.4544 17.2683 23.4986 17.0528 23.4986 16.8349C23.4986 16.6171 23.4544 16.4015 23.3687 16.2013C23.283 16.001 23.1575 15.8203 22.9999 15.6699L16.1899 9.52993C16.1386 9.48316 16.1065 9.41901 16.0999 9.34993C16.1003 9.31607 16.1077 9.28266 16.1214 9.25172C16.1352 9.22078 16.1551 9.19295 16.1799 9.16993L17.9399 7.40993C17.9864 7.37174 18.0447 7.35087 18.1049 7.35087C18.1651 7.35087 18.2234 7.37174 18.2699 7.40993C18.5288 7.60598 18.8451 7.7114 19.1699 7.70993C19.5669 7.70636 19.947 7.54858 20.2299 7.26993C20.5084 6.9874 20.6645 6.60663 20.6645 6.20993C20.6645 5.81323 20.5084 5.43246 20.2299 5.14993L15.5399 0.439931C15.4013 0.299641 15.2362 0.188257 15.0543 0.112236C14.8723 0.0362155 14.6771 -0.00292969 14.4799 -0.00292969C14.2827 -0.00292969 14.0875 0.0362155 13.9055 0.112236C13.7235 0.188257 13.5585 0.299641 13.4199 0.439931C13.1559 0.698442 12.9959 1.04477 12.9701 1.41334C12.9443 1.78192 13.0545 2.14716 13.2799 2.43993C13.3214 2.48283 13.3447 2.54021 13.3447 2.59993C13.3447 2.65965 13.3214 2.71703 13.2799 2.75993L7.71989 8.25993C7.67699 8.30148 7.61961 8.3247 7.55989 8.3247C7.50017 8.3247 7.44279 8.30148 7.39989 8.25993C7.10713 8.03454 6.74188 7.92431 6.3733 7.95011C6.00473 7.97591 5.6584 8.13595 5.39989 8.39993C5.2596 8.53852 5.14822 8.70358 5.0722 8.88553C4.99618 9.06749 4.95703 9.26273 4.95703 9.45993C4.95703 9.65713 4.99618 9.85237 5.0722 10.0343C5.14822 10.2163 5.2596 10.3813 5.39989 10.5199L10.0799 15.2099C10.3451 15.5096 10.7185 15.6917 11.118 15.7161C11.5174 15.7404 11.9102 15.6051 12.2099 15.3399C12.5096 15.0747 12.6917 14.7013 12.716 14.3019C12.7404 13.9024 12.6051 13.5096 12.3399 13.2099C12.3017 13.1634 12.2808 13.1051 12.2808 13.0449C12.2808 12.9848 12.3017 12.9264 12.3399 12.8799L14.0999 11.1199C14.1229 11.0951 14.1507 11.0752 14.1817 11.0615C14.2126 11.0477 14.246 11.0404 14.2799 11.0399C14.315 11.0387 14.3499 11.0462 14.3814 11.062C14.4128 11.0777 14.4398 11.1011 14.4599 11.1299L20.6699 17.9999C20.8202 18.1576 21.001 18.283 21.2013 18.3688C21.4015 18.4545 21.6171 18.4987 21.8349 18.4987C22.0527 18.4987 22.2683 18.4545 22.4685 18.3688C22.6688 18.283 22.8495 18.1576 22.9999 17.9999Z" fill="current" />
    <path d="M12.5 22H1.5C1.23478 22 0.98043 22.1054 0.792893 22.2929C0.605357 22.4804 0.5 22.7348 0.5 23C0.5 23.2652 0.605357 23.5196 0.792893 23.7071C0.98043 23.8946 1.23478 24 1.5 24H12.5C12.7652 24 13.0196 23.8946 13.2071 23.7071C13.3946 23.5196 13.5 23.2652 13.5 23C13.5 22.7348 13.3946 22.4804 13.2071 22.2929C13.0196 22.1054 12.7652 22 12.5 22Z" fill="current" />
</svg>
    