<svg width="20" height="23" viewBox="0 0 20 23" fill="none" xmlns="http://www.w3.org/2000/svg">
<g opacity="0.4" clip-path="url(#clip0)">
<path fill-rule="evenodd" clip-rule="evenodd" d="M2.34152 0H17.6471C18.9377 0 19.9886 1.05083 20 2.34152V22.6499L17.5328 20.514L16.1508 19.2461L14.6888 17.8983L15.2941 19.9886H2.34152C1.05083 19.9886 0 18.9377 0 17.6471V2.34152C0 1.05083 1.05083 0 2.34152 0ZM12.4843 13.8778C12.827 14.3004 13.2381 14.7915 13.2381 14.7915C15.6297 14.7158 16.6166 13.2355 16.7138 13.0897C16.7192 13.0816 16.7219 13.0776 16.7219 13.0782C16.7219 9.43461 15.0771 6.4763 15.0771 6.4763C13.4437 5.25414 11.8789 5.28841 11.8789 5.28841L11.719 5.47116C13.6608 6.05368 14.5631 6.91034 14.5631 6.91034C13.3752 6.2707 12.2102 5.95089 11.1251 5.82524C10.3027 5.73387 9.51456 5.75671 8.81782 5.84809C8.75799 5.84809 8.70687 5.85679 8.64925 5.8666C8.64087 5.86803 8.63235 5.86948 8.62364 5.87093C8.22387 5.91662 7.253 6.05368 6.03084 6.59052C5.60822 6.77327 5.35694 6.91034 5.35694 6.91034C5.35694 6.91034 6.29355 6.008 8.34951 5.42547L8.23529 5.28841C8.23529 5.28841 6.6819 5.25414 5.03712 6.4763C5.03712 6.4763 3.39235 9.43461 3.39235 13.0782C3.39235 13.0782 4.3518 14.723 6.87607 14.803C6.87607 14.803 7.29869 14.3004 7.64135 13.8664C6.19075 13.4323 5.64249 12.53 5.64249 12.53C5.64249 12.53 5.75671 12.6099 5.96231 12.7242C5.96937 12.7242 5.97642 12.7285 5.98618 12.7345C5.99221 12.7383 5.99927 12.7426 6.008 12.747C6.02513 12.7584 6.04226 12.767 6.0594 12.7756C6.07653 12.7841 6.09366 12.7927 6.11079 12.8041C6.39634 12.964 6.6819 13.0897 6.9446 13.1925C7.41291 13.3866 7.97259 13.558 8.62364 13.6836C9.4803 13.8435 10.4854 13.9006 11.582 13.695C12.1188 13.5922 12.667 13.4437 13.2381 13.2039C13.6379 13.0554 14.0834 12.8384 14.5517 12.53C14.5517 12.53 13.9806 13.4552 12.4843 13.8778ZM10.9309 10.7595C10.9309 10.0627 11.4449 9.50304 12.096 9.50304C12.7356 9.50304 13.261 10.0627 13.261 10.7595C13.261 11.4562 12.7471 12.0159 12.096 12.0159C11.4564 12.0159 10.9309 11.4562 10.9309 10.7595ZM6.7619 10.7595C6.7619 10.0627 7.27589 9.50304 7.92695 9.50304C8.57801 9.50304 9.10342 10.0627 9.092 10.7595C9.092 11.4562 8.57801 12.0159 7.92695 12.0159C7.28732 12.0159 6.7619 11.4562 6.7619 10.7595Z" fill="#9891F0"/>
</g>
<defs>
<clipPath id="clip0">
<rect width="20" height="22.6499" fill="white"/>
</clipPath>
</defs>
</svg>
