<svg width="12" height="12" viewBox="0 0 12 12" fill="current" xmlns="http://www.w3.org/2000/svg">
    <path d="M11.6695 3.33066L10.589 4.41113C10.4788 4.52129 10.3007 4.52129 10.1906 4.41113L7.589 1.80957C7.47884 1.69941 7.47884 1.52129 7.589 1.41113L8.66946 0.330664C9.10775 -0.107617 9.82025 -0.107617 10.2609 0.330664L11.6695 1.73926C12.1101 2.17754 12.1101 2.89004 11.6695 3.33066ZM6.66087 2.33926L0.506183 8.49395L0.00930792 11.3416C-0.0586608 11.726 0.276495 12.0588 0.66087 11.9932L3.50853 11.4939L9.66321 5.33926C9.77337 5.2291 9.77337 5.05098 9.66321 4.94082L7.06165 2.33926C6.94915 2.2291 6.77103 2.2291 6.66087 2.33926ZM2.90853 7.9666C2.77962 7.8377 2.77962 7.63144 2.90853 7.50254L6.5179 3.89316C6.64681 3.76426 6.85306 3.76426 6.98196 3.89316C7.11087 4.02207 7.11087 4.22832 6.98196 4.35723L3.37259 7.9666C3.24368 8.09551 3.03743 8.09551 2.90853 7.9666ZM2.06243 9.93769H3.18743V10.7885L1.67571 11.0533L0.946808 10.3244L1.21165 8.81269H2.06243V9.93769Z"
          fill="current"/>
</svg>
