<svg width="20" height="20" viewBox="0 0 20 20" fill="none"
    xmlns="http://www.w3.org/2000/svg">
    <g opacity="0.4" clip-path="url(#clip0)">
        <path d="M10.0001 0.233307C7.61941 0.2326 5.31659 1.08124 3.50569 2.62663C1.6948 4.17202 0.494638 6.31277 0.121022 8.66393C-0.252593 11.0151 0.224848 13.4224 1.46749 15.453C2.71014 17.4837 4.63646 19.0043 6.90008 19.7416H7.14175C7.25965 19.749 7.37776 19.7311 7.48825 19.6893C7.59873 19.6475 7.69907 19.5827 7.7826 19.4992C7.86613 19.4156 7.93095 19.3153 7.97275 19.2048C8.01456 19.0943 8.03239 18.9762 8.02508 18.8583V18.6833C8.02508 18.5416 8.02508 18.35 8.02508 17.775C8.0169 17.7204 7.99796 17.668 7.96934 17.6207C7.94073 17.5735 7.90303 17.5325 7.85841 17.5C7.81001 17.4608 7.75344 17.433 7.69287 17.4186C7.6323 17.4042 7.56927 17.4035 7.50841 17.4166C5.27508 17.9 4.80008 16.5 4.76675 16.4083C4.48709 15.6676 3.98677 15.0305 3.33341 14.5833C3.29427 14.5495 3.25247 14.5188 3.20841 14.4916C3.30525 14.4395 3.41602 14.4191 3.52508 14.4333C3.73453 14.4624 3.93287 14.5453 4.10081 14.6738C4.26874 14.8023 4.40055 14.9721 4.48341 15.1666C4.80579 15.728 5.33331 16.1424 5.955 16.3226C6.57669 16.5029 7.24408 16.4351 7.81675 16.1333C7.8782 16.1064 7.93226 16.0651 7.97433 16.0129C8.01641 15.9607 8.04525 15.8991 8.05841 15.8333C8.09032 15.4478 8.2553 15.0855 8.52508 14.8083C8.58497 14.7551 8.62826 14.6858 8.64977 14.6086C8.67128 14.5315 8.67009 14.4498 8.64635 14.3733C8.62261 14.2968 8.57732 14.2287 8.51591 14.1773C8.45449 14.1259 8.37956 14.0932 8.30008 14.0833C6.32508 13.8583 4.30841 13.1666 4.30841 9.75831C4.29176 8.90237 4.60507 8.07285 5.18341 7.44164C5.23668 7.38281 5.27203 7.30999 5.28532 7.23174C5.29861 7.1535 5.28927 7.07309 5.25841 6.99997C5.02681 6.35292 5.02976 5.64508 5.26675 4.99997C6.0366 5.13644 6.75919 5.46619 7.36675 5.95831C7.41694 5.99373 7.47448 6.01738 7.53508 6.02748C7.59568 6.03758 7.65778 6.03387 7.71675 6.01664C8.46115 5.81471 9.22878 5.71105 10.0001 5.70831C10.7743 5.70896 11.5449 5.81265 12.2917 6.01664C12.3495 6.03257 12.41 6.03561 12.4691 6.02553C12.5281 6.01544 12.5842 5.9925 12.6334 5.95831C13.2419 5.46774 13.9641 5.13818 14.7334 4.99997C14.9603 5.64162 14.9603 6.34166 14.7334 6.98331C14.7026 7.05642 14.6932 7.13684 14.7065 7.21508C14.7198 7.29332 14.7551 7.36614 14.8084 7.42497C15.3808 8.04987 15.6936 8.8693 15.6834 9.71664C15.6834 13.125 13.6584 13.8083 11.6751 14.0333C11.5937 14.0418 11.5167 14.074 11.4535 14.126C11.3904 14.1779 11.3439 14.2473 11.3199 14.3255C11.2959 14.4037 11.2955 14.4872 11.3186 14.5657C11.3418 14.6441 11.3875 14.714 11.4501 14.7666C11.6347 14.9572 11.7757 15.1855 11.8635 15.4358C11.9512 15.6862 11.9836 15.9526 11.9584 16.2166V18.8666C11.9543 18.9969 11.979 19.1265 12.0309 19.2461C12.0828 19.3657 12.1605 19.4723 12.2584 19.5583C12.3831 19.6517 12.528 19.7146 12.6813 19.7421C12.8347 19.7696 12.9924 19.7609 13.1417 19.7166C15.3902 18.9644 17.2982 17.4378 18.5254 15.4092C19.7525 13.3806 20.219 10.982 19.8416 8.64133C19.4642 6.30066 18.2674 4.17023 16.4648 2.63018C14.6621 1.09013 12.371 0.240645 10.0001 0.233307Z" fill="currentColor"/>
    </g>
    <defs>
        <clipPath id="clip0">
            <rect width="20" height="20" fill="currentColor"/>
        </clipPath>
    </defs>
</svg>
