<svg width="31" height="32" viewBox="0 0 31 32" fill="current" xmlns="http://www.w3.org/2000/svg">
<path d="M19 11C18.4067 11 17.8266 10.8241 17.3333 10.4944C16.8399 10.1648 16.4554 9.69623 16.2284 9.14805C16.0013 8.59987 15.9419 7.99667 16.0576 7.41473C16.1734 6.83279 16.4591 6.29824 16.8787 5.87868C17.2982 5.45912 17.8328 5.1734 18.4147 5.05765C18.9967 4.94189 19.5999 5.0013 20.1481 5.22836C20.6962 5.45543 21.1648 5.83994 21.4944 6.33329C21.8241 6.82664 22 7.40666 22 8C22 8.79565 21.6839 9.55871 21.1213 10.1213C20.5587 10.6839 19.7957 11 19 11ZM19 7C18.8022 7 18.6089 7.05865 18.4444 7.16853C18.28 7.27841 18.1518 7.43459 18.0761 7.61732C18.0004 7.80004 17.9806 8.00111 18.0192 8.19509C18.0578 8.38907 18.153 8.56726 18.2929 8.70711C18.4327 8.84696 18.6109 8.9422 18.8049 8.98079C18.9989 9.01937 19.2 8.99957 19.3827 8.92388C19.5654 8.84819 19.7216 8.72002 19.8315 8.55557C19.9414 8.39112 20 8.19778 20 8C20 7.73478 19.8946 7.48043 19.7071 7.29289C19.5196 7.10536 19.2652 7 19 7ZM13 19C12.4067 19 11.8266 18.8241 11.3333 18.4944C10.8399 18.1648 10.4554 17.6962 10.2284 17.1481C10.0013 16.5999 9.94189 15.9967 10.0576 15.4147C10.1734 14.8328 10.4591 14.2982 10.8787 13.8787C11.2982 13.4591 11.8328 13.1734 12.4147 13.0576C12.9967 12.9419 13.5999 13.0013 14.1481 13.2284C14.6962 13.4554 15.1648 13.8399 15.4944 14.3333C15.8241 14.8266 16 15.4067 16 16C16 16.7957 15.6839 17.5587 15.1213 18.1213C14.5587 18.6839 13.7957 19 13 19ZM13 15C12.8022 15 12.6089 15.0587 12.4444 15.1685C12.28 15.2784 12.1518 15.4346 12.0761 15.6173C12.0004 15.8 11.9806 16.0011 12.0192 16.1951C12.0578 16.3891 12.153 16.5673 12.2929 16.7071C12.4327 16.847 12.6109 16.9422 12.8049 16.9808C12.9989 17.0194 13.2 16.9996 13.3827 16.9239C13.5654 16.8482 13.7216 16.72 13.8315 16.5556C13.9414 16.3911 14 16.1978 14 16C14 15.7348 13.8946 15.4804 13.7071 15.2929C13.5196 15.1054 13.2652 15 13 15ZM22 27C21.4067 27 20.8266 26.8241 20.3333 26.4944C19.8399 26.1648 19.4554 25.6962 19.2284 25.1481C19.0013 24.5999 18.9419 23.9967 19.0576 23.4147C19.1734 22.8328 19.4591 22.2982 19.8787 21.8787C20.2982 21.4591 20.8328 21.1734 21.4147 21.0576C21.9967 20.9419 22.5999 21.0013 23.1481 21.2284C23.6962 21.4554 24.1648 21.8399 24.4944 22.3333C24.8241 22.8266 25 23.4067 25 24C25 24.7957 24.6839 25.5587 24.1213 26.1213C23.5587 26.6839 22.7957 27 22 27ZM22 23C21.8022 23 21.6089 23.0586 21.4444 23.1685C21.28 23.2784 21.1518 23.4346 21.0761 23.6173C21.0004 23.8 20.9806 24.0011 21.0192 24.1951C21.0578 24.3891 21.153 24.5673 21.2929 24.7071C21.4327 24.847 21.6109 24.9422 21.8049 24.9808C21.9989 25.0194 22.2 24.9996 22.3827 24.9239C22.5654 24.8482 22.7216 24.72 22.8315 24.5556C22.9414 24.3911 23 24.1978 23 24C23 23.7348 22.8946 23.4804 22.7071 23.2929C22.5196 23.1054 22.2652 23 22 23Z" fill="current"/>
<path d="M26 9H21C20.7348 9 20.4804 8.89464 20.2929 8.70711C20.1054 8.51957 20 8.26522 20 8C20 7.73478 20.1054 7.48043 20.2929 7.29289C20.4804 7.10536 20.7348 7 21 7H26C26.2652 7 26.5196 7.10536 26.7071 7.29289C26.8946 7.48043 27 7.73478 27 8C27 8.26522 26.8946 8.51957 26.7071 8.70711C26.5196 8.89464 26.2652 9 26 9ZM17 9H5C4.73478 9 4.48043 8.89464 4.29289 8.70711C4.10536 8.51957 4 8.26522 4 8C4 7.73478 4.10536 7.48043 4.29289 7.29289C4.48043 7.10536 4.73478 7 5 7H17C17.2652 7 17.5196 7.10536 17.7071 7.29289C17.8946 7.48043 18 7.73478 18 8C18 8.26522 17.8946 8.51957 17.7071 8.70711C17.5196 8.89464 17.2652 9 17 9ZM26 17H15C14.7348 17 14.4804 16.8946 14.2929 16.7071C14.1054 16.5196 14 16.2652 14 16C14 15.7348 14.1054 15.4804 14.2929 15.2929C14.4804 15.1054 14.7348 15 15 15H26C26.2652 15 26.5196 15.1054 26.7071 15.2929C26.8946 15.4804 27 15.7348 27 16C27 16.2652 26.8946 16.5196 26.7071 16.7071C26.5196 16.8946 26.2652 17 26 17ZM11 17H5C4.73478 17 4.48043 16.8946 4.29289 16.7071C4.10536 16.5196 4 16.2652 4 16C4 15.7348 4.10536 15.4804 4.29289 15.2929C4.48043 15.1054 4.73478 15 5 15H11C11.2652 15 11.5196 15.1054 11.7071 15.2929C11.8946 15.4804 12 15.7348 12 16C12 16.2652 11.8946 16.5196 11.7071 16.7071C11.5196 16.8946 11.2652 17 11 17ZM26 25H24C23.7348 25 23.4804 24.8946 23.2929 24.7071C23.1054 24.5196 23 24.2652 23 24C23 23.7348 23.1054 23.4804 23.2929 23.2929C23.4804 23.1054 23.7348 23 24 23H26C26.2652 23 26.5196 23.1054 26.7071 23.2929C26.8946 23.4804 27 23.7348 27 24C27 24.2652 26.8946 24.5196 26.7071 24.7071C26.5196 24.8946 26.2652 25 26 25ZM20 25H5C4.73478 25 4.48043 24.8946 4.29289 24.7071C4.10536 24.5196 4 24.2652 4 24C4 23.7348 4.10536 23.4804 4.29289 23.2929C4.48043 23.1054 4.73478 23 5 23H20C20.2652 23 20.5196 23.1054 20.7071 23.2929C20.8946 23.4804 21 23.7348 21 24C21 24.2652 20.8946 24.5196 20.7071 24.7071C20.5196 24.8946 20.2652 25 20 25Z" fill="current"/>
</svg>
