<svg width="15" height="23" viewBox="0 0 15 23" fill="current" xmlns="http://www.w3.org/2000/svg">
    <path d="M8.10333 0.419296C8.02023 0.290644 7.90622 0.184864 7.77171 0.11162C7.63721 0.0383751 7.48649 0 7.33333 0C7.18018 0 7.02946 0.0383751 6.89495 0.11162C6.76044 0.184864 6.64643 0.290644 6.56333 0.419296C6.49917 0.520129 0 10.7593 0 14.6735C0 16.6184 0.772617 18.4836 2.14788 19.8589C3.52315 21.2342 5.38841 22.0068 7.33333 22.0068C9.27825 22.0068 11.1435 21.2342 12.5188 19.8589C13.894 18.4836 14.6667 16.6184 14.6667 14.6735C14.6667 10.7685 8.1675 0.520129 8.10333 0.419296ZM7.33333 19.4768C6.05931 19.4744 4.83802 18.9678 3.93628 18.0678C3.03455 17.1678 2.52567 15.9475 2.52083 14.6735C2.52083 14.4911 2.59327 14.3163 2.7222 14.1873C2.85113 14.0584 3.026 13.986 3.20833 13.986C3.39067 13.986 3.56554 14.0584 3.69447 14.1873C3.8234 14.3163 3.89583 14.4911 3.89583 14.6735C3.90067 15.5828 4.26467 16.4534 4.90855 17.0956C5.55242 17.7377 6.42398 18.0994 7.33333 18.1018C7.51567 18.1018 7.69054 18.1742 7.81947 18.3032C7.9484 18.4321 8.02083 18.607 8.02083 18.7893C8.02083 18.9716 7.9484 19.1465 7.81947 19.2754C7.69054 19.4044 7.51567 19.4768 7.33333 19.4768Z" fill="current" />
</svg>
    