<svg width="18" height="18" viewBox="0 0 18 18" fill="none" xmlns="http://www.w3.org/2000/svg">
<g clip-path="url(#clip0_4533_30611)">
<path d="M7.07239 12.5851C7.03429 12.4159 6.93873 12.2651 6.80198 12.1585C6.66524 12.0518 6.49576 11.9958 6.32239 12.0001H2.29489C2.12152 11.9958 1.95203 12.0518 1.81529 12.1585C1.67855 12.2651 1.58299 12.4159 1.54489 12.5851L0.374887 17.0851C0.35005 17.1957 0.350644 17.3106 0.376627 17.421C0.402608 17.5315 0.4533 17.6345 0.524887 17.7226C0.59705 17.8115 0.688654 17.8829 0.79266 17.931C0.89667 17.9791 1.01033 18.0027 1.12489 18.0001H7.49989C7.6119 18.0005 7.72267 17.9757 7.82385 17.9277C7.9251 17.8796 8.01428 17.8096 8.08485 17.7226C8.1552 17.6339 8.20448 17.5305 8.22915 17.4201C8.2539 17.3097 8.25322 17.1952 8.22735 17.0851L7.07239 12.5851Z" fill="current"/>
<path d="M16.0724 12.5851C16.0343 12.4159 15.9387 12.2651 15.802 12.1585C15.6653 12.0518 15.4958 11.9958 15.3224 12.0001H11.2949C11.1215 11.9958 10.952 12.0518 10.8153 12.1585C10.6786 12.2651 10.583 12.4159 10.5449 12.5851L9.37487 17.0851C9.35004 17.1957 9.35064 17.3106 9.37667 17.421C9.40262 17.5315 9.45332 17.6345 9.52487 17.7226C9.59552 17.8096 9.68469 17.8796 9.78594 17.9277C9.88712 17.9757 9.99789 18.0005 10.1099 18.0001H16.4999C16.6119 18.0005 16.7227 17.9757 16.8239 17.9277C16.9251 17.8796 17.0143 17.8096 17.0849 17.7226C17.1552 17.6339 17.2045 17.5305 17.2292 17.4201C17.2539 17.3097 17.2532 17.1952 17.2274 17.0851L16.0724 12.5851Z" fill="current"/>
<path d="M6.0599 5.46004L4.8899 9.96008C4.86506 10.0707 4.86566 10.1856 4.89164 10.296C4.91762 10.4065 4.96831 10.5095 5.0399 10.5976C5.11049 10.6846 5.19967 10.7546 5.30091 10.8027C5.40214 10.8507 5.51285 10.8755 5.6249 10.8751H11.9999C12.112 10.8755 12.2227 10.8507 12.3239 10.8027C12.4251 10.7546 12.5143 10.6846 12.5849 10.5976C12.6552 10.5089 12.7045 10.4055 12.7292 10.2951C12.7539 10.1847 12.7533 10.0702 12.7274 9.96008L11.5649 5.46004C11.5268 5.29086 11.4313 5.14011 11.2945 5.03344C11.1577 4.92678 10.9882 4.8708 10.8149 4.87504H6.7949C6.62408 4.87428 6.45812 4.93184 6.32446 5.03822C6.19081 5.1446 6.09748 5.29341 6.0599 5.46004Z" fill="current"/>
<path d="M2.88755 6.3525C2.88755 6.4997 2.94602 6.64086 3.05011 6.74495C3.15419 6.84903 3.29536 6.9075 3.44255 6.9075C3.58668 6.9077 3.72539 6.85258 3.83005 6.75349C3.93473 6.6544 3.99736 6.51893 4.00505 6.375C4.07457 5.77694 4.34308 5.2196 4.76746 4.7925C5.19184 4.36541 5.74744 4.09334 6.34505 4.02C6.49423 4.02 6.63731 3.96073 6.7428 3.85525C6.84829 3.74976 6.90755 3.60668 6.90755 3.4575C6.90755 3.30832 6.84829 3.16524 6.7428 3.05975C6.63731 2.95426 6.49423 2.895 6.34505 2.895C5.74805 2.84197 5.1883 2.58216 4.76244 2.16041C4.33659 1.73866 4.07136 1.18146 4.01255 0.585C4.01558 0.50926 4.00327 0.433689 3.97636 0.362824C3.94946 0.291961 3.90851 0.227266 3.85597 0.172626C3.80343 0.117987 3.74039 0.0745295 3.67063 0.0448647C3.60088 0.0151999 3.52586 -6.04855e-05 3.45005 1.80168e-07C3.30087 1.80168e-07 3.15779 0.0592634 3.0523 0.164752C2.94682 0.270241 2.88755 0.413316 2.88755 0.5625C2.83489 1.16469 2.57124 1.72894 2.14312 2.15569C1.715 2.58244 1.14991 2.84427 0.547552 2.895C0.474666 2.89597 0.402687 2.9113 0.335725 2.9401C0.268763 2.9689 0.20813 3.01061 0.157289 3.06284C0.106448 3.11508 0.0663934 3.17682 0.0394145 3.24453C0.0124354 3.31225 -0.000940237 3.38462 5.136e-05 3.4575C0.00199383 3.60608 0.0618807 3.74803 0.166951 3.8531C0.272023 3.95817 0.413971 4.01806 0.562551 4.02C1.16708 4.06061 1.73624 4.31961 2.16398 4.74873C2.59172 5.17785 2.84888 5.74784 2.88755 6.3525Z" fill="#BE95FF"/>
<path d="M17.6775 6.75001H17.4825C17.2338 6.7162 17.0031 6.60182 16.8257 6.42436C16.6482 6.24691 16.5338 6.01618 16.5 5.76751V5.57251C16.4826 5.48587 16.4357 5.40795 16.3674 5.35196C16.299 5.29597 16.2134 5.26538 16.125 5.26538C16.0367 5.26538 15.951 5.29597 15.8827 5.35196C15.8143 5.40795 15.7674 5.48587 15.75 5.57251V5.76751C15.7162 6.01618 15.6018 6.24691 15.4244 6.42436C15.2469 6.60182 15.0162 6.7162 14.7675 6.75001H14.5725C14.4859 6.76742 14.408 6.81429 14.3519 6.88264C14.296 6.95101 14.2654 7.03664 14.2654 7.12501C14.2654 7.21336 14.296 7.29901 14.3519 7.36736C14.408 7.43572 14.4859 7.48259 14.5725 7.5H14.7675C15.0162 7.53382 15.2469 7.6482 15.4244 7.82565C15.6018 8.0031 15.7162 8.2338 15.75 8.4825V8.6775C15.7674 8.76412 15.8143 8.84205 15.8827 8.89807C15.951 8.95402 16.0367 8.98462 16.125 8.98462C16.2134 8.98462 16.299 8.95402 16.3674 8.89807C16.4357 8.84205 16.4826 8.76412 16.5 8.6775V8.4825C16.5338 8.2338 16.6482 8.0031 16.8257 7.82565C17.0031 7.6482 17.2338 7.53382 17.4825 7.5H17.6775C17.7641 7.48259 17.8421 7.43572 17.8981 7.36736C17.954 7.29901 17.9846 7.21336 17.9846 7.12501C17.9846 7.03664 17.954 6.95101 17.8981 6.88264C17.8421 6.81429 17.7641 6.76742 17.6775 6.75001Z" fill="#BE95FF"/>
</g>
<defs>
<clipPath id="clip0_4533_30611">
<rect width="18" height="18" fill="current"/>
</clipPath>
</defs>
</svg>
