<svg width="24" height="24" viewBox="0 0 24 24" fill="current" xmlns="http://www.w3.org/2000/svg">
    <path d="M8.22005 19.4803C8.2846 19.4777 8.34565 19.4502 8.3904 19.4036C8.43514 19.357 8.4601 19.2949 8.46005 19.2303V16.8903C8.45956 16.8189 8.4308 16.7505 8.38005 16.7003C8.35604 16.6781 8.32756 16.6612 8.29652 16.6509C8.26548 16.6405 8.23259 16.6369 8.20005 16.6403H7.00005C4.89737 16.6928 2.80101 16.3885 0.800049 15.7403C0.764777 15.721 0.725234 15.7109 0.685049 15.7109C0.644863 15.7109 0.60532 15.721 0.570049 15.7403C0.527652 15.7675 0.494465 15.8069 0.474836 15.8533C0.455208 15.8997 0.450053 15.9509 0.460049 16.0003V18.1503C0.460049 18.9003 3.39005 19.5003 7.00005 19.5003L8.22005 19.4803Z" fill="current" />
    <path d="M7.00001 7.66009C9.18972 7.76939 11.377 7.40087 13.41 6.58009C13.4502 6.55686 13.4835 6.52328 13.5064 6.48283C13.5293 6.44238 13.5409 6.39654 13.54 6.35009V4.00009C13.5405 3.95872 13.5307 3.91787 13.5115 3.88122C13.4923 3.84457 13.4643 3.81326 13.43 3.79009C13.3947 3.77083 13.3552 3.76074 13.315 3.76074C13.2748 3.76074 13.2353 3.77083 13.2 3.79009C11.199 4.4383 9.10268 4.74261 7.00001 4.69009C4.89733 4.74261 2.80096 4.4383 0.800005 3.79009C0.764733 3.77083 0.725191 3.76074 0.685005 3.76074C0.64482 3.76074 0.605277 3.77083 0.570005 3.79009C0.535724 3.81326 0.507729 3.84457 0.488531 3.88122C0.469333 3.91787 0.459531 3.95872 0.460005 4.00009V6.35009C0.459146 6.39654 0.470752 6.44238 0.493615 6.48283C0.516477 6.52328 0.549762 6.55686 0.590005 6.58009C2.62301 7.40087 4.81029 7.76939 7.00001 7.66009Z" fill="current" />
    <path d="M7.00001 3.66008C9.18972 3.76938 11.377 3.40086 13.41 2.58008C13.4502 2.55685 13.4835 2.52327 13.5064 2.48282C13.5293 2.44237 13.5409 2.39653 13.54 2.35008V1.93008C13.54 1.19008 10.61 0.580078 7.00001 0.580078C3.39001 0.580078 0.460005 1.19008 0.460005 1.93008V2.35008C0.459146 2.39653 0.470752 2.44237 0.493615 2.48282C0.516477 2.52327 0.549762 2.55685 0.590005 2.58008C2.62301 3.40086 4.81029 3.76938 7.00001 3.66008Z" fill="current" />
    <path d="M6.99994 15.6603C7.42994 15.6603 7.82994 15.6603 8.21994 15.6603C8.25232 15.6603 8.28436 15.6538 8.31415 15.6411C8.34394 15.6284 8.37086 15.6099 8.39328 15.5865C8.4157 15.5632 8.43317 15.5355 8.44462 15.5052C8.45608 15.4749 8.46129 15.4427 8.45994 15.4103V13.8503C8.45585 13.56 8.50675 13.2716 8.60994 13.0003C8.62922 12.9632 8.63929 12.9221 8.63929 12.8803C8.63929 12.8385 8.62922 12.7974 8.60994 12.7603C8.58539 12.7257 8.55209 12.6982 8.51344 12.6806C8.4748 12.663 8.43218 12.656 8.38994 12.6603C7.93994 12.6603 7.47994 12.6603 7.02994 12.6603C4.92726 12.7128 2.8309 12.4085 0.82994 11.7603C0.794668 11.741 0.755125 11.731 0.71494 11.731C0.674754 11.731 0.635212 11.741 0.59994 11.7603C0.555481 11.782 0.518449 11.8163 0.493528 11.8591C0.468607 11.9018 0.456918 11.9509 0.45994 12.0003V14.3503C0.459081 14.3968 0.470686 14.4426 0.493549 14.483C0.516412 14.5235 0.549696 14.5571 0.58994 14.5803C2.62295 15.4011 4.81022 15.7696 6.99994 15.6603Z" fill="current" />
    <path d="M7.00001 11.6601C9.17953 11.6322 11.3417 11.2679 13.41 10.5801C13.4502 10.5569 13.4835 10.5233 13.5064 10.4828C13.5293 10.4424 13.5409 10.3965 13.54 10.3501V8.00009C13.5405 7.95872 13.5307 7.91787 13.5115 7.88122C13.4923 7.84457 13.4643 7.81326 13.43 7.79009C13.3947 7.77083 13.3552 7.76074 13.315 7.76074C13.2748 7.76074 13.2353 7.77083 13.2 7.79009C11.199 8.4383 9.10268 8.74261 7.00001 8.69009C4.89733 8.74261 2.80096 8.4383 0.800005 7.79009C0.764733 7.77083 0.725191 7.76074 0.685005 7.76074C0.64482 7.76074 0.605277 7.77083 0.570005 7.79009C0.535724 7.81326 0.507729 7.84457 0.488531 7.88122C0.469333 7.91787 0.459531 7.95872 0.460005 8.00009V10.3501C0.459146 10.3965 0.470752 10.4424 0.493615 10.4828C0.516477 10.5233 0.549762 10.5569 0.590005 10.5801C2.62301 11.4009 4.81029 11.7694 7.00001 11.6601Z" fill="current" />
    <path d="M10.8 15.6802C10.7647 15.661 10.7252 15.6509 10.685 15.6509C10.6448 15.6509 10.6053 15.661 10.57 15.6802C10.5358 15.7011 10.5077 15.7305 10.4884 15.7656C10.4691 15.8007 10.4593 15.8402 10.46 15.8802V18.2402C10.4599 18.2852 10.4719 18.3294 10.4948 18.3681C10.5176 18.4068 10.5505 18.4386 10.59 18.4602C12.6181 19.3009 14.8069 19.6834 17 19.5802C19.1908 19.6929 21.3795 19.3207 23.41 18.4902C23.4494 18.4686 23.4823 18.4368 23.5052 18.3981C23.5281 18.3594 23.5401 18.3152 23.54 18.2702V15.9102C23.5406 15.8702 23.5308 15.8307 23.5116 15.7956C23.4923 15.7605 23.4641 15.7311 23.43 15.7102C23.3947 15.691 23.3552 15.6809 23.315 15.6809C23.2748 15.6809 23.2353 15.691 23.2 15.7102C21.199 16.3584 19.1027 16.6627 17 16.6102C14.8956 16.6531 12.7992 16.3386 10.8 15.6802Z" fill="current" />
    <path d="M17 20.5802C14.8973 20.6327 12.8009 20.3284 10.8 19.6802C10.7647 19.661 10.7252 19.6509 10.685 19.6509C10.6448 19.6509 10.6053 19.661 10.57 19.6802C10.5358 19.7011 10.5077 19.7305 10.4884 19.7656C10.4691 19.8007 10.4593 19.8402 10.46 19.8802V22.0402C10.46 22.7802 13.39 23.3902 17 23.3902C20.61 23.3902 23.54 22.7802 23.54 22.0402V19.9102C23.5406 19.8702 23.5308 19.8307 23.5116 19.7956C23.4923 19.7605 23.4641 19.7311 23.43 19.7102C23.3947 19.691 23.3552 19.6809 23.315 19.6809C23.2748 19.6809 23.2353 19.691 23.2 19.7102C21.1973 20.3483 19.101 20.6424 17 20.5802Z" fill="current" />
    <path d="M10.46 13.85V14.27C10.4598 14.315 10.4718 14.3591 10.4947 14.3979C10.5176 14.4366 10.5505 14.4684 10.59 14.49C12.6204 15.3205 14.8091 15.6926 17 15.58C19.1908 15.6926 21.3795 15.3205 23.41 14.49C23.4494 14.4684 23.4823 14.4366 23.5052 14.3979C23.5281 14.3591 23.5401 14.315 23.54 14.27V13.85C23.54 13.11 20.61 12.5 17 12.5C13.39 12.5 10.46 13.11 10.46 13.85Z" fill="current" />
</svg>
    