<svg width="24" height="22" viewBox="0 0 24 22" xmlns="http://www.w3.org/2000/svg">
    <path d="M16.6999 3C18.489 3.06121 20.2768 2.84532 21.9999 2.36C22.0483 2.34365 22.0906 2.31284 22.121 2.27171C22.1514 2.23058 22.1685 2.18112 22.1699 2.13V2C22.1695 1.86487 22.1156 1.73539 22.0199 1.64C21.9099 1.53 20.7599 0.5 16.6699 0.5C12.5799 0.5 11.4299 1.5 11.3199 1.64C11.2351 1.7401 11.1921 1.86903 11.1999 2V2.11C11.2007 2.16249 11.2173 2.21351 11.2477 2.25635C11.278 2.29919 11.3206 2.33183 11.3699 2.35C13.1047 2.82885 14.9009 3.0479 16.6999 3Z" fill="current" />
    <path d="M16.7 8.00001C18.489 8.06122 20.2768 7.84534 22 7.36001C22.0484 7.34367 22.0907 7.31285 22.1211 7.27172C22.1515 7.2306 22.1685 7.18114 22.17 7.13001V3.70001C22.1692 3.66134 22.1599 3.62331 22.1426 3.58871C22.1253 3.55411 22.1004 3.52381 22.07 3.50001C22.0359 3.48247 21.9982 3.47332 21.96 3.47332C21.9217 3.47332 21.884 3.48247 21.85 3.50001C20.1577 3.86071 18.43 4.02844 16.7 4.00001C14.9572 4.00774 13.2193 3.8165 11.52 3.43001C11.4859 3.41247 11.4482 3.40332 11.41 3.40332C11.3717 3.40332 11.334 3.41247 11.3 3.43001C11.2695 3.45381 11.2447 3.48411 11.2274 3.51871C11.2101 3.55331 11.2007 3.59134 11.2 3.63001V7.14001C11.2007 7.1925 11.2174 7.24352 11.2478 7.28636C11.2781 7.3292 11.3207 7.36185 11.37 7.38001C13.1063 7.84875 14.9024 8.05768 16.7 8.00001Z" fill="current" />
    <path d="M16.7 9.00001C14.9572 9.00774 13.2193 8.8165 11.52 8.43001C11.4859 8.41247 11.4482 8.40332 11.41 8.40332C11.3717 8.40332 11.334 8.41247 11.3 8.43001C11.2695 8.45381 11.2447 8.48411 11.2274 8.51871C11.2101 8.55331 11.2007 8.59134 11.2 8.63001V11.46C11.2 12.81 15.05 12.96 16.7 12.96C18.35 12.96 22.2 12.81 22.2 11.46V8.70001C22.1992 8.66134 22.1898 8.62331 22.1725 8.58871C22.1552 8.55411 22.1304 8.52381 22.1 8.50001C22.0659 8.48247 22.0282 8.47332 21.99 8.47332C21.9517 8.47332 21.914 8.48247 21.88 8.50001C20.1779 8.86297 18.44 9.03072 16.7 9.00001Z" fill="current" />
    <path d="M20.71 15.53L17.17 16.7C17.1358 16.7101 17.1045 16.7281 17.0785 16.7523C17.0525 16.7766 17.0324 16.8066 17.02 16.84C16.8593 17.1872 16.6025 17.481 16.2799 17.6866C15.9573 17.8922 15.5825 18.0009 15.2 18H11.2C11.0674 18 10.9402 17.9473 10.8464 17.8536C10.7527 17.7598 10.7 17.6326 10.7 17.5C10.7 17.3674 10.7527 17.2402 10.8464 17.1464C10.9402 17.0527 11.0674 17 11.2 17H15.2C15.4652 17 15.7195 16.8946 15.9071 16.7071C16.0946 16.5196 16.2 16.2652 16.2 16C16.2 15.7348 16.0946 15.4804 15.9071 15.2929C15.7195 15.1054 15.4652 15 15.2 15H11.7C10.5519 14.1018 9.15555 13.5781 7.69998 13.5H5.63998C5.01526 13.5224 4.40496 13.6938 3.85998 14L0.859978 15.51C0.81792 15.5293 0.78233 15.5603 0.757492 15.5993C0.732654 15.6384 0.719626 15.6837 0.719978 15.73V21.13C0.720872 21.1748 0.73331 21.2185 0.756085 21.2571C0.77886 21.2956 0.811202 21.3276 0.849978 21.35C0.887982 21.3719 0.931093 21.3835 0.974978 21.3835C1.01886 21.3835 1.06197 21.3719 1.09998 21.35L4.31998 19.35C4.44667 19.27 4.58974 19.2194 4.73859 19.2021C4.88745 19.1848 5.0383 19.2012 5.17998 19.25C15.18 22.61 11.81 22.62 23.04 16.94C23.132 16.9039 23.2118 16.8423 23.2701 16.7624C23.3283 16.6825 23.3626 16.5877 23.3689 16.4891C23.3752 16.3904 23.3533 16.292 23.3056 16.2054C23.258 16.1188 23.1867 16.0475 23.1 16C22.7767 15.7209 22.3863 15.5308 21.9672 15.4484C21.5482 15.366 21.1149 15.3941 20.71 15.53Z" fill="current" />
</svg>
    