<svg width="20" height="20" viewBox="0 0 20 20" fill="none" xmlns="http://www.w3.org/2000/svg">
<g opacity="0.4">
<path d="M19.4334 5.3666C19.4927 5.31732 19.5372 5.25254 19.5618 5.17949C19.5865 5.10644 19.5904 5.02797 19.5732 4.95282C19.5559 4.87768 19.5181 4.8088 19.464 4.75385C19.4099 4.69891 19.3416 4.66005 19.2668 4.6416L18.6084 4.47494C18.5486 4.45995 18.4928 4.43186 18.4451 4.39268C18.3974 4.35351 18.359 4.30424 18.3327 4.24842C18.3064 4.1926 18.2928 4.13164 18.2929 4.06993C18.2931 4.00823 18.3069 3.94732 18.3334 3.8916L18.7001 3.14994C18.7347 3.07807 18.748 2.99777 18.7383 2.91857C18.7287 2.83938 18.6965 2.76463 18.6456 2.70319C18.5947 2.64176 18.5272 2.59623 18.4512 2.57202C18.3752 2.54781 18.2938 2.54593 18.2168 2.5666L16.5501 3.03327C16.488 3.05138 16.4225 3.05479 16.3589 3.04322C16.2952 3.03164 16.2352 3.00542 16.1834 2.9666C15.4622 2.42568 14.585 2.13327 13.6834 2.13327C12.5784 2.13327 11.5185 2.57226 10.7371 3.35366C9.95574 4.13506 9.51676 5.19487 9.51676 6.29994V6.59994C9.51712 6.65112 9.49864 6.70065 9.46483 6.73907C9.43101 6.7775 9.38424 6.80213 9.33342 6.80827C6.99175 7.08327 4.75009 5.8916 2.33342 3.10827C2.28092 3.05037 2.21347 3.00807 2.13849 2.98602C2.06351 2.96396 1.9839 2.96301 1.90842 2.98327C1.84042 3.01453 1.78209 3.06352 1.73956 3.12511C1.69704 3.1867 1.67189 3.2586 1.66675 3.33327C1.33297 4.70439 1.46792 6.14779 2.05009 7.43327C2.06731 7.46737 2.07483 7.50554 2.07182 7.54362C2.06881 7.5817 2.05539 7.61822 2.03303 7.64919C2.01066 7.68016 1.98021 7.70438 1.94501 7.71921C1.9098 7.73404 1.8712 7.7389 1.83342 7.73327L0.900085 7.54994C0.833803 7.53928 0.765928 7.5448 0.702237 7.56602C0.638546 7.58724 0.580926 7.62353 0.534281 7.67182C0.487636 7.7201 0.453348 7.77893 0.434336 7.84332C0.415323 7.9077 0.41215 7.97573 0.425085 8.0416C0.497034 8.68114 0.711897 9.29631 1.05377 9.84158C1.39564 10.3868 1.85577 10.8482 2.40009 11.1916C2.43531 11.2087 2.46501 11.2353 2.4858 11.2685C2.50658 11.3016 2.51761 11.34 2.51761 11.3791C2.51761 11.4182 2.50658 11.4566 2.4858 11.4897C2.46501 11.5229 2.43531 11.5495 2.40009 11.5666L1.95842 11.7416C1.90478 11.7631 1.8562 11.7955 1.81577 11.8368C1.77534 11.8781 1.74394 11.9274 1.72356 11.9814C1.70318 12.0355 1.69428 12.0932 1.69741 12.1509C1.70054 12.2086 1.71564 12.2651 1.74175 12.3166C1.98599 12.851 2.35622 13.3183 2.82067 13.6782C3.28512 14.0382 3.82994 14.2801 4.40842 14.3833C4.44864 14.3979 4.48339 14.4245 4.50794 14.4595C4.5325 14.4946 4.54567 14.5363 4.54567 14.5791C4.54567 14.6219 4.5325 14.6636 4.50794 14.6987C4.48339 14.7337 4.44864 14.7603 4.40842 14.7749C3.27539 15.2436 2.05947 15.4788 0.833418 15.4666C0.722911 15.4445 0.608151 15.4672 0.514383 15.5297C0.420614 15.5922 0.35552 15.6894 0.333418 15.7999C0.311317 15.9104 0.334019 16.0252 0.396531 16.119C0.459044 16.2127 0.556245 16.2778 0.666752 16.2999C2.78971 17.3068 5.10107 17.8548 7.45009 17.9083C9.5163 17.9398 11.5457 17.3599 13.2834 16.2416C14.7128 15.2875 15.8839 13.9945 16.6923 12.478C17.5007 10.9615 17.9214 9.26848 17.9168 7.54994V6.82494C17.9173 6.76443 17.9309 6.70476 17.9569 6.65007C17.9828 6.59538 18.0203 6.547 18.0668 6.50827L19.4334 5.3666Z" fill="#9891F0"/>
</g>
</svg>
