<svg width="75" height="75" viewBox="0 0 75 75" fill="none" xmlns="http://www.w3.org/2000/svg">
<circle cx="37.5" cy="37.5" r="37.5" fill="#6E27E4"/>
<path d="M53.4286 34.1429H41.8571V22.5714C41.8571 21.1515 40.7056 20 39.2857 20H36.7143C35.2944 20 34.1429 21.1515 34.1429 22.5714V34.1429H22.5714C21.1515 34.1429 20 35.2944 20 36.7143V39.2857C20 40.7056 21.1515 41.8571 22.5714 41.8571H34.1429V53.4286C34.1429 54.8485 35.2944 56 36.7143 56H39.2857C40.7056 56 41.8571 54.8485 41.8571 53.4286V41.8571H53.4286C54.8485 41.8571 56 40.7056 56 39.2857V36.7143C56 35.2944 54.8485 34.1429 53.4286 34.1429Z" fill="white"/>
</svg>
