<svg width="32" height="36" viewBox="0 0 32 36" fill="none" xmlns="http://www.w3.org/2000/svg">
<path fill-rule="evenodd" clip-rule="evenodd" d="M31.996 5.76905C31.996 5.72062 31.9466 5.67406 31.9466 5.67406L31.8991 5.62564C31.8991 5.59559 31.8801 5.58419 31.8543 5.56873C31.8386 5.55929 31.8203 5.54832 31.8023 5.53066L31.7035 5.43381L24.0697 0.189202C23.8266 -0.000767622 23.4372 -0.000767622 23.1941 0.189202L15.9002 5.05191L8.85134 0.142477C8.60821 -0.0474923 8.21882 -0.0474923 7.97569 0.142477L0.341899 5.38709C0.316965 5.38709 0.30462 5.39943 0.292396 5.41165C0.280409 5.42364 0.268538 5.43551 0.245026 5.43551C0.245026 5.43551 0.195642 5.43551 0.195642 5.48393C0.171407 5.50769 0.147629 5.54267 0.123859 5.57763L0.123856 5.57764C0.0991902 5.61392 0.0745333 5.65019 0.0493845 5.6739V5.72232C0 5.81731 0 5.91229 0 6.00914V29.9918C0 30.2302 0.146257 30.4686 0.340002 30.612L7.97379 35.8566H8.02318L8.07256 35.905H8.12194C8.21882 35.9534 8.31569 36 8.46195 36C8.56092 36 8.61466 35.9778 8.68438 35.9491L8.68442 35.9491L8.68445 35.949L8.68451 35.949C8.71779 35.9353 8.75472 35.9201 8.80195 35.905H8.85133C8.85133 35.905 8.90072 35.905 8.90072 35.8566H8.9501L16.1453 30.8952L23.3424 35.8528H23.3899L23.4393 35.9012H23.4887C23.5855 35.9496 23.6824 35.9962 23.8287 35.9962C23.8978 35.9962 23.9668 35.9716 24.0538 35.9405L24.0539 35.9405L24.054 35.9405C24.0889 35.928 24.1268 35.9145 24.1687 35.9012H24.2181C24.2181 35.9012 24.2674 35.9012 24.2674 35.8528H24.3168L31.9506 30.6082L32 30.5597L31.996 5.76905ZM1.55714 7.48438L7.05236 11.2502L1.55714 15.016V7.48438ZM1.55714 29.6084L7.63539 33.7561V22.1216L5.39782 20.5963L1.55714 17.974V29.6084ZM22.9029 33.8045L16.8247 29.6568V17.9738L22.9029 22.1698V33.8045ZM29.9064 16.4969L23.1955 11.8725H23.1952C22.9996 11.7291 22.8533 11.4907 22.8533 11.2523C22.8533 11.0139 22.9996 10.7755 23.1933 10.6321L29.9042 6.00767L23.6324 1.71663L16.3385 6.57934C16.0954 6.76931 15.706 6.76931 15.4629 6.57934L8.41209 1.71472L2.14031 6.00577L8.85118 10.6302C9.04492 10.7736 9.19118 11.012 9.19118 11.2504C9.19118 11.4888 9.04492 11.7272 8.85118 11.8706L2.14031 16.495L8.07219 20.5961L8.41219 20.8345L15.5106 15.8769H15.56C15.56 15.8285 15.6094 15.8285 15.6094 15.8285H15.6531C15.6531 15.78 15.7025 15.78 15.7025 15.78H15.7518H15.8487H15.9456H15.995H16.0444H16.1412H16.2381H16.2875C16.2875 15.8285 16.3369 15.8285 16.3369 15.8285H16.3862C16.3862 15.8769 16.4356 15.8769 16.4356 15.8769H16.485L23.6345 20.8364L23.9745 20.598L29.9064 16.4969Z" fill="white"/>
</svg>
