<svg width="24" height="24" viewBox="0 0 24 24" fill="none" xmlns="http://www.w3.org/2000/svg">
<rect width="24" height="24" rx="12" fill="#2D374B"/>
<path d="M18.95 14.911C18.95 15.2913 18.8538 15.6648 18.6711 15.994C18.4884 16.3231 18.2256 16.5962 17.9093 16.7857L13.0353 19.7054C12.7208 19.8937 12.3645 19.9928 12.0019 19.9928C11.6393 19.9928 11.283 19.8937 10.9686 19.7054L6.09448 16.7857C5.77817 16.5962 5.5154 16.3232 5.33267 15.994C5.14994 15.6649 5.05372 15.2913 5.05371 14.911V9.08917C5.0537 8.70888 5.14991 8.33532 5.33262 8.00618C5.51534 7.67703 5.77809 7.40394 6.09438 7.21446L10.9685 4.29479C11.2829 4.10644 11.6392 4.00732 12.0018 4.00732C12.3644 4.00732 12.7207 4.10644 13.0352 4.29479L17.9092 7.21446C18.2255 7.40393 18.4883 7.67701 18.6711 8.00616C18.8538 8.3353 18.95 8.70887 18.95 9.08917V14.911Z" fill="#1D86CC"/>
<path d="M11.4012 5.10782L6.5894 8.00512C6.40646 8.11522 6.25456 8.2736 6.14898 8.46433C6.04339 8.65505 5.98784 8.8714 5.98792 9.0916L5.99092 14.8926C5.99106 15.1124 6.04664 15.3284 6.1521 15.5188C6.25756 15.7092 6.40919 15.8674 6.59178 15.9774L11.4092 18.8806C11.5921 18.9906 11.7996 19.0486 12.0107 19.0486C12.2219 19.0486 12.4293 18.9906 12.6122 18.8806L17.424 15.9841C17.607 15.874 17.7589 15.7157 17.8645 15.5249C17.9701 15.3342 18.0256 15.1179 18.0255 14.8977L18.0225 9.09669C18.0224 8.87683 17.9668 8.66089 17.8613 8.4705C17.7559 8.28011 17.6042 8.12197 17.4217 8.01193L12.6042 5.10869C12.4213 4.99862 12.2139 4.94067 12.0027 4.94067C11.7916 4.94067 11.5841 4.99862 11.4012 5.10869V5.10782Z" fill="white"/>
<path d="M9.81282 16.9196C9.82023 16.8818 9.83648 16.8465 9.86011 16.8168C11.2995 14.2707 12.7392 11.7246 14.1791 9.17867C14.1991 9.14332 14.2176 9.10699 14.2346 9.07532C14.222 9.05229 14.2076 9.05705 14.1953 9.05705C13.5802 9.05932 12.965 9.06343 12.3494 9.06267C12.3231 9.06218 12.2973 9.0701 12.2754 9.08537C12.2536 9.10064 12.2367 9.12252 12.2271 9.14807C11.7631 9.94807 11.2985 10.7479 10.8333 11.5474C9.84773 13.2425 8.8621 14.9375 7.87636 16.6325C7.86765 16.6475 7.85852 16.6622 7.85074 16.6777C7.83332 16.7127 7.81351 16.7182 7.77815 16.6968C7.62519 16.6027 7.47057 16.5115 7.30806 16.4141L11.6947 9.07986C11.6853 9.05002 11.6659 9.05748 11.651 9.05694C11.4159 9.04959 11.1807 9.03899 10.9458 9.03683C10.6158 9.02664 10.287 9.08189 9.97677 9.19964C9.69428 9.30869 9.4542 9.51189 9.29378 9.7777C8.49229 11.0809 7.68776 12.3821 6.88018 13.6813C6.86753 13.7018 6.85405 13.7219 6.84098 13.7422C6.79473 13.7422 6.80157 13.7025 6.79732 13.6747C6.79323 13.6328 6.79226 13.5907 6.79442 13.5487C6.79442 12.1118 6.79919 10.6748 6.79017 9.23791C6.78292 9.1141 6.81149 8.99087 6.87217 8.88417C6.93285 8.77747 7.02285 8.69221 7.13052 8.63943C8.19048 8.00948 9.24359 7.36656 10.3001 6.73024C10.7717 6.44624 11.2447 6.16494 11.7128 5.87499C11.8008 5.8134 11.9045 5.78052 12.0105 5.78052C12.1165 5.78052 12.2202 5.8134 12.3082 5.87499C13.169 6.40159 14.0374 6.91597 14.9026 7.4351C15.5552 7.82681 16.2081 8.21784 16.8612 8.60818C16.908 8.63597 16.9535 8.6657 17.0005 8.69305C17.0769 8.73536 17.1401 8.79959 17.1826 8.87813C17.225 8.95668 17.2451 9.04626 17.2403 9.13629C17.2415 10.6994 17.2415 12.2625 17.2403 13.8256C17.2433 13.864 17.2393 13.9028 17.2285 13.9396C17.1766 13.9919 17.1578 13.9333 17.139 13.9055C17.0612 13.7914 16.9914 13.6713 16.9191 13.5533C16.3403 12.6088 15.7596 11.6655 15.1769 10.7235C14.9811 10.4052 14.7828 10.0881 14.5891 9.7684C14.5439 9.6938 14.5357 9.69272 14.4905 9.77283C14.1982 10.2884 13.906 10.8041 13.6141 11.32C13.5981 11.3486 13.5912 11.3819 13.5944 11.4149C13.5976 11.4479 13.6107 11.479 13.6319 11.5038C13.8726 11.9087 14.1129 12.3138 14.3528 12.7193L15.5824 14.7928C15.7483 15.073 15.9145 15.353 16.081 15.6327C16.1119 15.6702 16.1293 15.7178 16.1301 15.7672C16.0968 15.8362 16.0275 15.8555 15.9697 15.8869C15.8749 15.9583 15.7707 16.0149 15.6604 16.0552C15.6008 16.0398 15.5798 15.9838 15.5516 15.9379C15.1709 15.3189 14.7951 14.6967 14.4168 14.0762C14.0279 13.4383 13.6407 12.7981 13.2501 12.1609C13.2 12.0792 13.192 12.0787 13.1449 12.1609C12.8051 12.7569 12.4699 13.3558 12.1292 13.9511C12.1118 13.979 12.1033 14.0119 12.1048 14.0452C12.1063 14.0784 12.1178 14.1103 12.1376 14.1364C12.5965 14.8737 13.0448 15.6175 13.4989 16.3585C13.6255 16.5649 13.753 16.7707 13.8774 16.9787C13.9016 17.0191 13.9348 17.0594 13.9128 17.1141C13.7937 17.2108 13.665 17.2941 13.5291 17.3628C13.1051 17.62 12.6808 17.8769 12.2563 18.1334C12.1883 18.1791 12.1091 18.2035 12.0281 18.2035C11.9472 18.2035 11.868 18.1791 11.8 18.1334C11.1747 17.7563 10.5483 17.3809 9.92077 17.0072C9.87754 16.9893 9.8401 16.9589 9.81282 16.9196Z" fill="#2D374B"/>
<path d="M17.2102 13.9552C17.2111 13.9166 17.213 13.8782 17.213 13.8397C17.213 12.2801 17.2134 10.7206 17.2144 9.16119C17.2197 9.06661 17.1984 8.97248 17.1531 8.89034C17.1079 8.8082 17.0406 8.74163 16.9595 8.69881C15.3886 7.76 13.8188 6.81906 12.2502 5.876C12.1796 5.82809 12.0972 5.80248 12.0129 5.80225C11.9287 5.80202 11.8461 5.82718 11.7752 5.8747C10.9041 6.40248 10.0319 6.9289 9.1586 7.45394C8.45791 7.87679 7.75725 8.29974 7.05663 8.72281C6.9818 8.76327 6.91977 8.8254 6.87799 8.90173C6.83621 8.97805 6.81646 9.06533 6.82112 9.15308C6.82471 10.6495 6.82675 12.1459 6.82723 13.6424C6.82723 13.6757 6.81427 13.7128 6.84217 13.7422C6.67624 14.0302 6.49393 14.3069 6.31919 14.5888C6.23166 14.7299 6.14379 14.8707 6.05558 15.0113C6.04147 15.0338 6.02519 15.0546 5.99729 15.0947C5.99522 15.0476 5.99304 15.0215 5.99304 14.9956C5.99304 13.0222 5.99339 11.0488 5.99408 9.07535C5.98946 8.85633 6.04279 8.64021 6.14824 8.45071C6.25368 8.2612 6.40716 8.10564 6.59183 8.00108C7.20098 7.624 7.81823 7.26097 8.43143 6.89059C8.9488 6.57827 9.46442 6.26356 9.98149 5.9507C10.4637 5.65881 10.9411 5.35816 11.4315 5.08216C11.6193 4.97313 11.8318 4.91868 12.0467 4.92449C12.2616 4.93031 12.4711 4.99619 12.6532 5.11524C13.0473 5.34832 13.4397 5.58573 13.8326 5.82119C14.2022 6.04295 14.5718 6.26486 14.9413 6.48692C15.2819 6.69131 15.6226 6.89549 15.9633 7.09946C16.3012 7.30176 16.6391 7.50396 16.977 7.70605C17.1255 7.79502 17.2739 7.8841 17.4215 7.9747C17.5844 8.07079 17.7245 8.20389 17.8313 8.36413C17.9381 8.52438 18.009 8.70764 18.0385 8.90032C18.0455 8.95597 18.0477 9.01216 18.045 9.06821C18.045 11.0101 18.0452 12.9519 18.0457 14.8938C18.0467 15.0783 18.0085 15.2608 17.9339 15.4281C17.8592 15.5954 17.75 15.7435 17.6141 15.8616C17.5365 15.9233 17.4531 15.9766 17.3652 16.0206C16.8605 16.3276 16.3551 16.6333 15.8489 16.9377C15.3111 17.2621 14.7731 17.5858 14.2348 17.9091C13.7176 18.2214 13.2009 18.5349 12.6848 18.8496C12.5563 18.9397 12.4117 19.0019 12.2596 19.0324C12.007 19.0838 11.7452 19.0491 11.513 18.9334C11.2556 18.7895 11.0048 18.6334 10.7511 18.4818C10.4103 18.278 10.0697 18.0738 9.72928 17.8692C9.63311 17.8115 9.53687 17.7542 9.44057 17.6972C9.40521 17.6762 9.38104 17.6549 9.40863 17.6068C9.53598 17.3844 9.66135 17.1608 9.78808 16.9379C9.79254 16.9298 9.80395 16.9261 9.81214 16.9201C9.93022 16.9776 10.0445 17.0432 10.1544 17.1163C10.7104 17.4479 11.2656 17.781 11.8199 18.1158C11.884 18.158 11.9584 18.18 12.0341 18.1792C12.1099 18.1783 12.1838 18.1547 12.247 18.111C12.7735 17.789 13.3027 17.4716 13.8308 17.1525C13.8569 17.1368 13.8836 17.1224 13.9102 17.1075C13.96 17.0411 14.0265 16.9906 14.1023 16.9614C14.5793 16.6764 15.0528 16.3858 15.5297 16.1016C15.5696 16.0779 15.6054 16.0414 15.6573 16.0476L16.1246 15.7654C16.1531 15.7031 16.214 15.683 16.265 15.6523C16.5001 15.5108 16.733 15.3654 16.9702 15.2284C17.0388 15.1908 17.0956 15.1333 17.1336 15.0628C17.1717 14.9924 17.1894 14.9119 17.1847 14.8312C17.1871 14.5832 17.1847 14.3351 17.1859 14.087C17.1776 14.0415 17.1863 13.9944 17.2102 13.9552Z" fill="#96BEDC"/>
<path d="M17.2108 13.9552C17.212 14.2631 17.2185 14.5714 17.2119 14.8789C17.2137 14.9509 17.1964 15.0221 17.1618 15.0845C17.1273 15.1469 17.0768 15.1981 17.016 15.2324C16.7186 15.408 16.4266 15.5935 16.1264 15.7643C16.0071 15.5373 15.8692 15.3211 15.7388 15.1005C15.0613 13.9557 14.383 12.8116 13.7039 11.6681C13.6633 11.5996 13.626 11.5284 13.5806 11.4637C13.5658 11.4451 13.5577 11.4217 13.5577 11.3976C13.5577 11.3734 13.5658 11.35 13.5806 11.3314C13.7427 11.0488 13.9021 10.7646 14.0625 10.4808L14.5078 9.69339C14.5157 9.67467 14.5296 9.65938 14.5471 9.65015C14.6246 9.77458 14.7027 9.90009 14.7807 10.0257C15.2491 10.7861 15.7175 11.5464 16.1858 12.3068L17.1383 13.8546C17.1557 13.8929 17.1803 13.9271 17.2108 13.9552Z" fill="#28A0F0"/>
<path d="M15.6586 16.0465C15.4652 16.1788 15.2601 16.2913 15.0607 16.414C14.6993 16.6356 14.3356 16.853 13.973 17.072C13.9522 17.0842 13.9315 17.0957 13.9115 17.1075C13.9069 17.0725 13.8925 17.0397 13.87 17.0133C13.5471 16.4842 13.2241 15.9552 12.9011 15.4264C12.6357 14.9921 12.3695 14.5582 12.1026 14.1248C12.0845 14.1023 12.074 14.0742 12.0728 14.0449C12.0715 14.0156 12.0795 13.9867 12.0955 13.9626C12.4523 13.3361 12.8077 12.7088 13.1615 12.0804C13.1699 12.0659 13.1767 12.0491 13.1975 12.0444C13.2265 12.0512 13.2336 12.0815 13.2474 12.1041L15.1763 15.2717C15.313 15.4964 15.4492 15.7217 15.5868 15.946C15.6043 15.984 15.6286 16.0182 15.6584 16.0467L15.6586 16.0465Z" fill="#28A0F0"/>
</svg>
