<svg width="24" height="24" viewBox="0 0 24 24" fill="none" xmlns="http://www.w3.org/2000/svg">
<rect width="24" height="24" rx="12" fill="#FE0420"/>
<path d="M7.0296 16C6.1396 16 5.41 15.7928 4.8416 15.3776C4.28 14.956 4 14.356 4 13.5776C4 13.4148 4.0188 13.2148 4.056 12.9776C4.17711 12.3335 4.31556 11.6927 4.4712 11.056C4.98 9.0184 6.2928 8 8.4096 8C8.9856 8 9.5016 8.096 9.9584 8.2888C10.4144 8.474 10.7736 8.7556 11.0356 9.1332C11.2972 9.5036 11.4284 9.948 11.4284 10.4668C11.4284 10.6224 11.4096 10.8188 11.3724 11.0556C11.263 11.7013 11.1282 12.3425 10.9684 12.9776C10.7064 13.9924 10.2536 14.752 9.6104 15.2556C8.9672 15.7516 8.1068 16 7.0296 16ZM7.1868 14.4C7.6056 14.4 7.9608 14.2776 8.2528 14.0332C8.552 13.7892 8.7648 13.4148 8.8924 12.9112C9.0644 12.2148 9.1952 11.6072 9.2852 11.0888C9.31526 10.9314 9.33026 10.7715 9.33 10.6112C9.33 9.9372 8.9744 9.6 8.264 9.6C7.8452 9.6 7.486 9.7224 7.1868 9.9668C6.8948 10.2108 6.6856 10.5852 6.5584 11.0888C6.4236 11.5852 6.2892 12.1928 6.1544 12.9112C6.1244 13.0592 6.1096 13.2148 6.1096 13.3776C6.1096 14.0592 6.4684 14.4 7.1868 14.4ZM12.5668 15.8888C12.4844 15.8888 12.4208 15.8628 12.376 15.8112C12.3575 15.7817 12.345 15.7489 12.3392 15.7146C12.3334 15.6802 12.3345 15.6451 12.3424 15.6112L13.8908 8.3888C13.9049 8.30878 13.9491 8.2372 14.0144 8.1888C14.0746 8.13957 14.1498 8.11221 14.2276 8.1112H17.2124C18.0424 8.1112 18.7084 8.2816 19.2096 8.6224C19.718 8.9628 19.9724 9.4556 19.9724 10.1C19.9724 10.2852 19.95 10.4776 19.9052 10.6776C19.718 11.5296 19.3404 12.1592 18.772 12.5668C18.2108 12.974 17.44 13.1776 16.4604 13.1776H14.9456L14.4296 15.6112C14.4155 15.6912 14.3713 15.7628 14.306 15.8112C14.2458 15.8604 14.1706 15.8878 14.0928 15.8888H12.5668ZM16.5388 11.6448C16.8532 11.6448 17.126 11.5592 17.358 11.3888C17.5976 11.2184 17.7544 10.974 17.8292 10.6556C17.8502 10.5457 17.8616 10.4342 17.8632 10.3224C17.8632 10.1076 17.7992 9.9444 17.6724 9.8332C17.5452 9.7148 17.3284 9.6556 17.0216 9.6556H15.6748L15.2484 11.644H16.5388V11.6448Z" fill="white"/>
</svg>
