<svg width="48" height="48" viewBox="0 0 48 48" fill="none" xmlns="http://www.w3.org/2000/svg">
<rect width="48" height="48" rx="24" fill="url(#paint0_linear_718_12878)"/>
<path opacity="0.3" d="M22.1963 26.528H25.2683C25.2923 24.176 29.6123 23.408 29.6123 19.664C29.6123 16.904 27.2603 14.864 23.9483 14.864C20.3963 14.864 18.3803 17.216 17.9963 19.784L20.8763 20.648C21.2603 18.992 22.3163 17.792 23.9243 17.792C25.4123 17.792 26.3243 18.632 26.3243 19.832C26.3243 22.136 22.2203 22.88 22.1963 26.528ZM23.7323 32.192C24.8123 32.192 25.6763 31.328 25.6763 30.224C25.6763 29.192 24.8123 28.352 23.7323 28.352C22.6283 28.352 21.7643 29.192 21.7643 30.224C21.7643 31.328 22.6283 32.192 23.7323 32.192Z" fill="white"/>
<defs>
<linearGradient id="paint0_linear_718_12878" x1="24" y1="0" x2="24" y2="48" gradientUnits="userSpaceOnUse">
<stop stop-color="#943BF3"/>
<stop offset="1" stop-color="#5327EE"/>
</linearGradient>
</defs>
</svg>
